<svg xmlns="http://www.w3.org/2000/svg" xmlns:xlink="http://www.w3.org/1999/xlink" contentStyleType="text/css" data-diagram-type="SEQUENCE" height="1034px" preserveAspectRatio="none" style="width:1957px;height:1034px;background:#FFFFFF;" version="1.1" viewBox="0 0 1957 1034" width="1957px" zoomAndPan="magnify"><defs/><g><rect fill="#ADD8E6" height="1022.7734" style="stroke:#181818;stroke-width:0.5;" width="589.105" x="200.54" y="6"/><text fill="#000000" font-family="sans-serif" font-size="13" font-weight="bold" lengthAdjust="spacing" textLength="62.3657" x="461.6467" y="18.0669">gateway</text><rect fill="#DDDDDD" height="1022.7734" style="stroke:#181818;stroke-width:0.5;" width="150.4536" x="828.9009" y="6"/><text fill="#000000" font-family="sans-serif" font-size="13" font-weight="bold" lengthAdjust="spacing" textLength="144.4536" x="831.9009" y="18.0669">mw_com_generated</text><rect fill="#ADD8E6" height="1022.7734" style="stroke:#181818;stroke-width:0.5;" width="144.728" x="1057.0259" y="6"/><text fill="#000000" font-family="sans-serif" font-size="13" font-weight="bold" lengthAdjust="spacing" textLength="134.2021" x="1060.0259" y="18.0669">gateway_adapters</text><rect fill="#DDDDDD" height="1022.7734" style="stroke:#181818;stroke-width:0.5;" width="278.4824" x="1203.7539" y="6"/><text fill="#000000" font-family="sans-serif" font-size="13" font-weight="bold" lengthAdjust="spacing" textLength="62.2388" x="1311.8757" y="18.0669">mw_com</text><g><title>LocalToSomeIPBridge.VehicleConsumer.</title><rect fill="#FFFFFF" height="136.6641" style="stroke:#FFFFFF;stroke-width:1;" width="10" x="624.8643" y="187.8281"/><line style="stroke:#181818;stroke-width:1;" x1="624.8643" x2="624.8643" y1="187.8281" y2="324.4922"/><line style="stroke:#181818;stroke-width:1;" x1="634.8643" x2="634.8643" y1="187.8281" y2="324.4922"/><line style="stroke:#181818;stroke-width:1;" x1="624.8643" x2="634.8643" y1="187.8281" y2="187.8281"/></g><g><title>LocalToSomeIPBridge.VehicleConsumer.</title><rect fill="#FFFFFF" height="632.9844" style="stroke:#FFFFFF;stroke-width:1;" width="10" x="624.8643" y="352.4922"/><line style="stroke:#181818;stroke-width:1;" x1="624.8643" x2="624.8643" y1="352.4922" y2="985.4766"/><line style="stroke:#181818;stroke-width:1;" x1="634.8643" x2="634.8643" y1="352.4922" y2="985.4766"/></g><rect fill="none" height="488.4531" style="stroke:#000000;stroke-width:1.5;" width="1135.2903" x="815.8572" y="417.7578"/><rect fill="none" height="349.7891" style="stroke:#000000;stroke-width:1.5;" width="1115.2903" x="825.8572" y="441.8906"/><rect fill="none" height="206.9297" style="stroke:#000000;stroke-width:1.5;" width="882.7888" x="1048.3586" y="577.75"/><rect fill="none" height="146.6641" style="stroke:#000000;stroke-width:1.5;" width="817.2952" x="1058.3586" y="631.0156"/><g><title>Config</title><rect fill="#000000" fill-opacity="0.00000" height="74.2656" width="8" x="229.9995" y="56.4297"/><line style="stroke:#181818;stroke-width:0.5;stroke-dasharray:5,5;" x1="233.54" x2="233.54" y1="56.4297" y2="130.6953"/></g><line style="stroke:#181818;stroke-width:0.5;stroke-dasharray:1,4;" x1="233.54" x2="233.54" y1="130.6953" y2="158.6953"/><g><title>Config</title><rect fill="#000000" fill-opacity="0.00000" height="165.7969" width="8" x="229.9995" y="158.6953"/><line style="stroke:#181818;stroke-width:0.5;stroke-dasharray:5,5;" x1="233.54" x2="233.54" y1="158.6953" y2="324.4922"/></g><line style="stroke:#181818;stroke-width:0.5;stroke-dasharray:1,4;" x1="233.54" x2="233.54" y1="324.4922" y2="352.4922"/><g><title>Config</title><rect fill="#000000" fill-opacity="0.00000" height="641.9844" width="8" x="229.9995" y="352.4922"/><line style="stroke:#181818;stroke-width:0.5;stroke-dasharray:5,5;" x1="233.54" x2="233.54" y1="352.4922" y2="994.4766"/></g><g><title>LocalToSomeIPBridge.VehicleConsumer.</title><rect fill="#000000" fill-opacity="0.00000" height="74.2656" width="8" x="625.8643" y="56.4297"/><line style="stroke:#181818;stroke-width:0.5;stroke-dasharray:5,5;" x1="629.0835" x2="629.0835" y1="56.4297" y2="130.6953"/></g><line style="stroke:#181818;stroke-width:0.5;stroke-dasharray:1,4;" x1="629.0835" x2="629.0835" y1="130.6953" y2="158.6953"/><g><title>LocalToSomeIPBridge.VehicleConsumer.</title><rect fill="#000000" fill-opacity="0.00000" height="165.7969" width="8" x="625.8643" y="158.6953"/><line style="stroke:#181818;stroke-width:0.5;stroke-dasharray:5,5;" x1="629.0835" x2="629.0835" y1="158.6953" y2="324.4922"/></g><line style="stroke:#181818;stroke-width:0.5;stroke-dasharray:1,4;" x1="629.0835" x2="629.0835" y1="324.4922" y2="352.4922"/><g><title>LocalToSomeIPBridge.VehicleConsumer.</title><rect fill="#000000" fill-opacity="0.00000" height="641.9844" width="8" x="625.8643" y="352.4922"/><line style="stroke:#181818;stroke-width:0.5;stroke-dasharray:5,5;" x1="629.0835" x2="629.0835" y1="352.4922" y2="994.4766"/></g><g><title>VehicleConsumer</title><rect fill="#000000" fill-opacity="0.00000" height="74.2656" width="8" x="900.1277" y="56.4297"/><line style="stroke:#181818;stroke-width:0.5;stroke-dasharray:5,5;" x1="903.8572" x2="903.8572" y1="56.4297" y2="130.6953"/></g><line style="stroke:#181818;stroke-width:0.5;stroke-dasharray:1,4;" x1="903.8572" x2="903.8572" y1="130.6953" y2="158.6953"/><g><title>VehicleConsumer</title><rect fill="#000000" fill-opacity="0.00000" height="165.7969" width="8" x="900.1277" y="158.6953"/><line style="stroke:#181818;stroke-width:0.5;stroke-dasharray:5,5;" x1="903.8572" x2="903.8572" y1="158.6953" y2="324.4922"/></g><line style="stroke:#181818;stroke-width:0.5;stroke-dasharray:1,4;" x1="903.8572" x2="903.8572" y1="324.4922" y2="352.4922"/><g><title>VehicleConsumer</title><rect fill="#000000" fill-opacity="0.00000" height="641.9844" width="8" x="900.1277" y="352.4922"/><line style="stroke:#181818;stroke-width:0.5;stroke-dasharray:5,5;" x1="903.8572" x2="903.8572" y1="352.4922" y2="994.4766"/></g><g><title>SomeIPAdapter</title><rect fill="#000000" fill-opacity="0.00000" height="74.2656" width="8" x="1125.3899" y="56.4297"/><line style="stroke:#181818;stroke-width:0.5;stroke-dasharray:5,5;" x1="1129.3586" x2="1129.3586" y1="56.4297" y2="130.6953"/></g><line style="stroke:#181818;stroke-width:0.5;stroke-dasharray:1,4;" x1="1129.3586" x2="1129.3586" y1="130.6953" y2="158.6953"/><g><title>SomeIPAdapter</title><rect fill="#000000" fill-opacity="0.00000" height="165.7969" width="8" x="1125.3899" y="158.6953"/><line style="stroke:#181818;stroke-width:0.5;stroke-dasharray:5,5;" x1="1129.3586" x2="1129.3586" y1="158.6953" y2="324.4922"/></g><line style="stroke:#181818;stroke-width:0.5;stroke-dasharray:1,4;" x1="1129.3586" x2="1129.3586" y1="324.4922" y2="352.4922"/><g><title>SomeIPAdapter</title><rect fill="#000000" fill-opacity="0.00000" height="641.9844" width="8" x="1125.3899" y="352.4922"/><line style="stroke:#181818;stroke-width:0.5;stroke-dasharray:5,5;" x1="1129.3586" x2="1129.3586" y1="352.4922" y2="994.4766"/></g><g><title>IPCRuntime</title><rect fill="#000000" fill-opacity="0.00000" height="74.2656" width="8" x="1251.479" y="56.4297"/><line style="stroke:#181818;stroke-width:0.5;stroke-dasharray:5,5;" x1="1254.7539" x2="1254.7539" y1="56.4297" y2="130.6953"/></g><line style="stroke:#181818;stroke-width:0.5;stroke-dasharray:1,4;" x1="1254.7539" x2="1254.7539" y1="130.6953" y2="158.6953"/><g><title>IPCRuntime</title><rect fill="#000000" fill-opacity="0.00000" height="165.7969" width="8" x="1251.479" y="158.6953"/><line style="stroke:#181818;stroke-width:0.5;stroke-dasharray:5,5;" x1="1254.7539" x2="1254.7539" y1="158.6953" y2="324.4922"/></g><line style="stroke:#181818;stroke-width:0.5;stroke-dasharray:1,4;" x1="1254.7539" x2="1254.7539" y1="324.4922" y2="352.4922"/><g><title>IPCRuntime</title><rect fill="#000000" fill-opacity="0.00000" height="641.9844" width="8" x="1251.479" y="352.4922"/><line style="stroke:#181818;stroke-width:0.5;stroke-dasharray:5,5;" x1="1254.7539" x2="1254.7539" y1="352.4922" y2="994.4766"/></g><g><title>Subscriber</title><rect fill="#000000" fill-opacity="0.00000" height="74.2656" width="8" x="1353.4736" y="56.4297"/><line style="stroke:#181818;stroke-width:0.5;stroke-dasharray:5,5;" x1="1357.2041" x2="1357.2041" y1="56.4297" y2="130.6953"/></g><line style="stroke:#181818;stroke-width:0.5;stroke-dasharray:1,4;" x1="1357.2041" x2="1357.2041" y1="130.6953" y2="158.6953"/><g><title>Subscriber</title><rect fill="#000000" fill-opacity="0.00000" height="165.7969" width="8" x="1353.4736" y="158.6953"/><line style="stroke:#181818;stroke-width:0.5;stroke-dasharray:5,5;" x1="1357.2041" x2="1357.2041" y1="158.6953" y2="324.4922"/></g><line style="stroke:#181818;stroke-width:0.5;stroke-dasharray:1,4;" x1="1357.2041" x2="1357.2041" y1="324.4922" y2="352.4922"/><g><title>Subscriber</title><rect fill="#000000" fill-opacity="0.00000" height="641.9844" width="8" x="1353.4736" y="352.4922"/><line style="stroke:#181818;stroke-width:0.5;stroke-dasharray:5,5;" x1="1357.2041" x2="1357.2041" y1="352.4922" y2="994.4766"/></g><g><title>Sample</title><rect fill="#000000" fill-opacity="0.00000" height="74.2656" width="8" x="1440.9897" y="56.4297"/><line style="stroke:#181818;stroke-width:0.5;stroke-dasharray:5,5;" x1="1444.7432" x2="1444.7432" y1="56.4297" y2="130.6953"/></g><line style="stroke:#181818;stroke-width:0.5;stroke-dasharray:1,4;" x1="1444.7432" x2="1444.7432" y1="130.6953" y2="158.6953"/><g><title>Sample</title><rect fill="#000000" fill-opacity="0.00000" height="165.7969" width="8" x="1440.9897" y="158.6953"/><line style="stroke:#181818;stroke-width:0.5;stroke-dasharray:5,5;" x1="1444.7432" x2="1444.7432" y1="158.6953" y2="324.4922"/></g><line style="stroke:#181818;stroke-width:0.5;stroke-dasharray:1,4;" x1="1444.7432" x2="1444.7432" y1="324.4922" y2="352.4922"/><g><title>Sample</title><rect fill="#000000" fill-opacity="0.00000" height="641.9844" width="8" x="1440.9897" y="352.4922"/><line style="stroke:#181818;stroke-width:0.5;stroke-dasharray:5,5;" x1="1444.7432" x2="1444.7432" y1="352.4922" y2="994.4766"/></g><g><title>Future</title><rect fill="#000000" fill-opacity="0.00000" height="504.8047" width="8" x="1608.9736" y="489.6719"/><line style="stroke:#181818;stroke-width:0.5;stroke-dasharray:5,5;" x1="1612.145" x2="1612.145" y1="489.6719" y2="994.4766"/></g><g><title>Subscription</title><rect fill="#000000" fill-opacity="0.00000" height="434.375" width="8" x="1866.6538" y="560.1016"/><line style="stroke:#181818;stroke-width:0.5;stroke-dasharray:5,5;" x1="1870.1602" x2="1870.1602" y1="560.1016" y2="994.4766"/></g><g class="participant participant-head" data-participant="Config"><rect fill="#E2E2F0" height="30.2969" rx="2.5" ry="2.5" style="stroke:#181818;stroke-width:0.5;" width="58.9189" x="204.54" y="25.1328"/><text fill="#000000" font-family="sans-serif" font-size="14" lengthAdjust="spacing" textLength="44.9189" x="211.54" y="45.1279">Config</text></g><g class="participant participant-tail" data-participant="Config"><rect fill="#E2E2F0" height="30.2969" rx="2.5" ry="2.5" style="stroke:#181818;stroke-width:0.5;" width="58.9189" x="204.54" y="993.4766"/><text fill="#000000" font-family="sans-serif" font-size="14" lengthAdjust="spacing" textLength="44.9189" x="211.54" y="1013.4717">Config</text></g><g class="participant participant-head" data-participant="LocalToSomeIPBridge"><rect fill="#E2E2F0" height="30.2969" rx="2.5" ry="2.5" style="stroke:#181818;stroke-width:0.5;" width="311.5615" x="474.0835" y="25.1328"/><text fill="#000000" font-family="sans-serif" font-size="14" lengthAdjust="spacing" textLength="297.5615" x="481.0835" y="45.1279">LocalToSomeIPBridge&lt;VehicleConsumer&gt;</text></g><g class="participant participant-tail" data-participant="LocalToSomeIPBridge"><rect fill="#E2E2F0" height="30.2969" rx="2.5" ry="2.5" style="stroke:#181818;stroke-width:0.5;" width="311.5615" x="474.0835" y="993.4766"/><text fill="#000000" font-family="sans-serif" font-size="14" lengthAdjust="spacing" textLength="297.5615" x="481.0835" y="1013.4717">LocalToSomeIPBridge&lt;VehicleConsumer&gt;</text></g><g class="participant participant-head" data-participant="VehicleConsumer"><rect fill="#E2E2F0" height="30.2969" rx="2.5" ry="2.5" style="stroke:#181818;stroke-width:0.5;" width="136.541" x="835.8572" y="25.1328"/><text fill="#000000" font-family="sans-serif" font-size="14" lengthAdjust="spacing" textLength="122.541" x="842.8572" y="45.1279">VehicleConsumer</text></g><g class="participant participant-tail" data-participant="VehicleConsumer"><rect fill="#E2E2F0" height="30.2969" rx="2.5" ry="2.5" style="stroke:#181818;stroke-width:0.5;" width="136.541" x="835.8572" y="993.4766"/><text fill="#000000" font-family="sans-serif" font-size="14" lengthAdjust="spacing" textLength="122.541" x="842.8572" y="1013.4717">VehicleConsumer</text></g><g class="participant participant-head" data-participant="SomeIPAdapter"><rect fill="#E2E2F0" height="30.2969" rx="2.5" ry="2.5" style="stroke:#181818;stroke-width:0.5;" width="122.0625" x="1068.3586" y="25.1328"/><text fill="#000000" font-family="sans-serif" font-size="14" lengthAdjust="spacing" textLength="108.0625" x="1075.3586" y="45.1279">SomeIPAdapter</text></g><g class="participant participant-tail" data-participant="SomeIPAdapter"><rect fill="#E2E2F0" height="30.2969" rx="2.5" ry="2.5" style="stroke:#181818;stroke-width:0.5;" width="122.0625" x="1068.3586" y="993.4766"/><text fill="#000000" font-family="sans-serif" font-size="14" lengthAdjust="spacing" textLength="108.0625" x="1075.3586" y="1013.4717">SomeIPAdapter</text></g><g class="participant participant-head" data-participant="IPCRuntime"><rect fill="#E2E2F0" height="30.2969" rx="2.5" ry="2.5" style="stroke:#181818;stroke-width:0.5;" width="95.4502" x="1207.7539" y="25.1328"/><text fill="#000000" font-family="sans-serif" font-size="14" lengthAdjust="spacing" textLength="81.4502" x="1214.7539" y="45.1279">IPCRuntime</text></g><g class="participant participant-tail" data-participant="IPCRuntime"><rect fill="#E2E2F0" height="30.2969" rx="2.5" ry="2.5" style="stroke:#181818;stroke-width:0.5;" width="95.4502" x="1207.7539" y="993.4766"/><text fill="#000000" font-family="sans-serif" font-size="14" lengthAdjust="spacing" textLength="81.4502" x="1214.7539" y="1013.4717">IPCRuntime</text></g><g class="participant participant-head" data-participant="Subscriber"><rect fill="#E2E2F0" height="30.2969" rx="2.5" ry="2.5" style="stroke:#181818;stroke-width:0.5;" width="88.5391" x="1313.2041" y="25.1328"/><text fill="#000000" font-family="sans-serif" font-size="14" lengthAdjust="spacing" textLength="74.5391" x="1320.2041" y="45.1279">Subscriber</text></g><g class="participant participant-tail" data-participant="Subscriber"><rect fill="#E2E2F0" height="30.2969" rx="2.5" ry="2.5" style="stroke:#181818;stroke-width:0.5;" width="88.5391" x="1313.2041" y="993.4766"/><text fill="#000000" font-family="sans-serif" font-size="14" lengthAdjust="spacing" textLength="74.5391" x="1320.2041" y="1013.4717">Subscriber</text></g><g class="participant participant-head" data-participant="Sample"><rect fill="#E2E2F0" height="30.2969" rx="2.5" ry="2.5" style="stroke:#181818;stroke-width:0.5;" width="66.4932" x="1411.7432" y="25.1328"/><text fill="#000000" font-family="sans-serif" font-size="14" lengthAdjust="spacing" textLength="52.4932" x="1418.7432" y="45.1279">Sample</text></g><g class="participant participant-tail" data-participant="Sample"><rect fill="#E2E2F0" height="30.2969" rx="2.5" ry="2.5" style="stroke:#181818;stroke-width:0.5;" width="66.4932" x="1411.7432" y="993.4766"/><text fill="#000000" font-family="sans-serif" font-size="14" lengthAdjust="spacing" textLength="52.4932" x="1418.7432" y="1013.4717">Sample</text></g><g class="participant participant-tail" data-participant="Future"><rect fill="#E2E2F0" height="30.2969" rx="2.5" ry="2.5" style="stroke:#181818;stroke-width:0.5;" width="59.6572" x="1583.145" y="993.4766"/><text fill="#000000" font-family="sans-serif" font-size="14" lengthAdjust="spacing" textLength="45.6572" x="1590.145" y="1013.4717">Future</text></g><g class="participant participant-tail" data-participant="Subscription"><rect fill="#E2E2F0" height="30.2969" rx="2.5" ry="2.5" style="stroke:#181818;stroke-width:0.5;" width="100.9873" x="1820.1602" y="993.4766"/><text fill="#000000" font-family="sans-serif" font-size="14" lengthAdjust="spacing" textLength="86.9873" x="1827.1602" y="1013.4717">Subscription</text></g><g><title>LocalToSomeIPBridge.VehicleConsumer.</title><rect fill="#FFFFFF" height="136.6641" style="stroke:#FFFFFF;stroke-width:1;" width="10" x="624.8643" y="187.8281"/><line style="stroke:#181818;stroke-width:1;" x1="624.8643" x2="624.8643" y1="187.8281" y2="324.4922"/><line style="stroke:#181818;stroke-width:1;" x1="634.8643" x2="634.8643" y1="187.8281" y2="324.4922"/><line style="stroke:#181818;stroke-width:1;" x1="624.8643" x2="634.8643" y1="187.8281" y2="187.8281"/></g><g><title>LocalToSomeIPBridge.VehicleConsumer.</title><rect fill="#FFFFFF" height="632.9844" style="stroke:#FFFFFF;stroke-width:1;" width="10" x="624.8643" y="352.4922"/><line style="stroke:#181818;stroke-width:1;" x1="624.8643" x2="624.8643" y1="352.4922" y2="985.4766"/><line style="stroke:#181818;stroke-width:1;" x1="634.8643" x2="634.8643" y1="352.4922" y2="985.4766"/></g><g class="message" data-participant-1="Config" data-participant-2="Config"><polygon fill="#181818" points="221.9995,83.5625,231.9995,87.5625,221.9995,91.5625,225.9995,87.5625" style="stroke:#181818;stroke-width:1;"/><line style="stroke:#181818;stroke-width:1;" x1="0" x2="227.9995" y1="87.5625" y2="87.5625"/><text fill="#000000" font-family="sans-serif" font-size="13" lengthAdjust="spacing" textLength="209.9995" x="7" y="82.4966">create_local_to_someip_bridge()</text></g><g class="message" data-participant-1="Config" data-participant-2="LocalToSomeIPBridge"><polygon fill="#181818" points="617.8643,115.6953,627.8643,119.6953,617.8643,123.6953,621.8643,119.6953" style="stroke:#181818;stroke-width:1;"/><line style="stroke:#181818;stroke-width:1;" x1="233.9995" x2="623.8643" y1="119.6953" y2="119.6953"/><text fill="#000000" font-family="sans-serif" font-size="13" lengthAdjust="spacing" textLength="371.8647" x="240.9995" y="114.6294">new(someip_service_desc, ipc_runtime, someip_adapter)</text></g><path d="M634,100.5625 L634,125.5625 L1039,125.5625 L1039,110.5625 L1029,100.5625 L634,100.5625" fill="#FEFFDD" style="stroke:#181818;stroke-width:0.5;"/><path d="M1029,100.5625 L1029,110.5625 L1039,110.5625 L1029,100.5625" fill="#FEFFDD" style="stroke:#181818;stroke-width:0.5;"/><text fill="#000000" font-family="sans-serif" font-size="13" lengthAdjust="spacing" textLength="333.1821" x="640" y="117.6294">Config will put each instance into separate task via</text><text fill="#000000" font-family="sans-serif" font-size="13" font-weight="bold" lengthAdjust="spacing" textLength="47.0806" x="977.3145" y="117.6294">spawn</text><g class="message" data-participant-1="LocalToSomeIPBridge" data-participant-2="LocalToSomeIPBridge"><line style="stroke:#181818;stroke-width:1;" x1="629.8643" x2="676.8643" y1="174.8281" y2="174.8281"/><line style="stroke:#181818;stroke-width:1;" x1="676.8643" x2="676.8643" y1="174.8281" y2="187.8281"/><line style="stroke:#181818;stroke-width:1;" x1="635.8643" x2="676.8643" y1="187.8281" y2="187.8281"/><polygon fill="#181818" points="645.8643,183.8281,635.8643,187.8281,645.8643,191.8281,641.8643,187.8281" style="stroke:#181818;stroke-width:1;"/><text fill="#000000" font-family="sans-serif" font-size="13" lengthAdjust="spacing" textLength="79.8281" x="641.8643" y="169.7622">start().await</text></g><g class="message" data-participant-1="LocalToSomeIPBridge" data-participant-2="SomeIPAdapter"><polygon fill="#181818" points="1117.3899,217.9609,1127.3899,221.9609,1117.3899,225.9609,1121.3899,221.9609" style="stroke:#181818;stroke-width:1;"/><line style="stroke:#181818;stroke-width:1;" x1="634.8643" x2="1123.3899" y1="221.9609" y2="221.9609"/><text fill="#000000" font-family="sans-serif" font-size="13" lengthAdjust="spacing" textLength="148.9795" x="641.8643" y="216.895">register_host_half(self)</text></g><path d="M1134,234.9609 L1134,289.9609 L1654,289.9609 L1654,244.9609 L1644,234.9609 L1134,234.9609" fill="#FEFFDD" style="stroke:#181818;stroke-width:0.5;"/><path d="M1644,234.9609 L1644,244.9609 L1654,244.9609 L1644,234.9609" fill="#FEFFDD" style="stroke:#181818;stroke-width:0.5;"/><text fill="#000000" font-family="sans-serif" font-size="13" font-weight="bold" lengthAdjust="spacing" textLength="131.4473" x="1140" y="252.0278">register_host_half</text><text fill="#000000" font-family="sans-serif" font-size="13" lengthAdjust="spacing" textLength="363.7397" x="1275.5796" y="252.0278">registers current instance to receive traffic for SOME/IP.</text><text fill="#000000" font-family="sans-serif" font-size="13" lengthAdjust="spacing" textLength="366.8374" x="1140" y="267.1606">If there is any traffic for this service (ie method request)</text><text fill="#000000" font-family="sans-serif" font-size="13" lengthAdjust="spacing" textLength="227.957" x="1140" y="282.2935">it will be delivered to this instance.</text><g class="message" data-participant-1="LocalToSomeIPBridge" data-participant-2="IPCRuntime"><polygon fill="#181818" points="1243.479,312.4922,1253.479,316.4922,1243.479,320.4922,1247.479,316.4922" style="stroke:#181818;stroke-width:1;"/><line style="stroke:#181818;stroke-width:1;" x1="634.8643" x2="1249.479" y1="316.4922" y2="316.4922"/><text fill="#000000" font-family="sans-serif" font-size="13" lengthAdjust="spacing" textLength="127.2959" x="641.8643" y="311.4263">find_service().await</text></g><g class="message" data-participant-1="LocalToSomeIPBridge" data-participant-2="SomeIPAdapter"><polygon fill="#181818" points="1117.3899,369.625,1127.3899,373.625,1117.3899,377.625,1121.3899,373.625" style="stroke:#181818;stroke-width:1;"/><line style="stroke:#181818;stroke-width:1;" x1="634.8643" x2="1123.3899" y1="373.625" y2="373.625"/><text fill="#000000" font-family="sans-serif" font-size="13" lengthAdjust="spacing" textLength="230.6484" x="641.8643" y="368.5591">offer_service(someip_service_desc)</text></g><g class="message" data-participant-1="LocalToSomeIPBridge" data-participant-2="VehicleConsumer"><polygon fill="#181818" points="892.1277,398.7578,902.1277,402.7578,892.1277,406.7578,896.1277,402.7578" style="stroke:#181818;stroke-width:1;"/><line style="stroke:#181818;stroke-width:1;" x1="634.8643" x2="898.1277" y1="402.7578" y2="402.7578"/><text fill="#000000" font-family="sans-serif" font-size="13" lengthAdjust="spacing" textLength="51.854" x="641.8643" y="397.6919">bridge()</text></g><path d="M815.8572,417.7578 L938.1145,417.7578 L938.1145,424.8906 L928.1145,434.8906 L815.8572,434.8906 L815.8572,417.7578" fill="#EEEEEE" style="stroke:#000000;stroke-width:1.5;"/><rect fill="none" height="488.4531" style="stroke:#000000;stroke-width:1.5;" width="1135.2903" x="815.8572" y="417.7578"/><text fill="#000000" font-family="sans-serif" font-size="13" font-weight="bold" lengthAdjust="spacing" textLength="77.2573" x="830.8572" y="430.8247">AsyncTask</text><path d="M825.8572,441.8906 L902.4812,441.8906 L902.4812,449.0234 L892.4812,459.0234 L825.8572,459.0234 L825.8572,441.8906" fill="#EEEEEE" style="stroke:#000000;stroke-width:1.5;"/><rect fill="none" height="349.7891" style="stroke:#000000;stroke-width:1.5;" width="1115.2903" x="825.8572" y="441.8906"/><text fill="#000000" font-family="sans-serif" font-size="13" font-weight="bold" lengthAdjust="spacing" textLength="31.624" x="840.8572" y="454.9575">loop</text><text fill="#000000" font-family="sans-serif" font-size="11" font-weight="bold" lengthAdjust="spacing" textLength="202.1035" x="917.4812" y="454.1011">[subscriber in VehicleConsumer]</text><g class="message" data-participant-1="VehicleConsumer" data-participant-2="Future"><polygon fill="#181818" points="1571.145,476.1563,1581.145,480.1563,1571.145,484.1563,1575.145,480.1563" style="stroke:#181818;stroke-width:1;"/><line style="stroke:#181818;stroke-width:1;" x1="904.1277" x2="1577.145" y1="480.1563" y2="480.1563"/><text fill="#000000" font-family="sans-serif" font-size="13" lengthAdjust="spacing" textLength="95.3799" x="911.1277" y="475.0903">bridge_event()</text></g><rect fill="#E2E2F0" height="30.2969" rx="2.5" ry="2.5" style="stroke:#181818;stroke-width:0.5;" width="59.6572" x="1583.145" y="459.0234"/><text fill="#000000" font-family="sans-serif" font-size="14" lengthAdjust="spacing" textLength="45.6572" x="1590.145" y="479.0186">Future</text><g class="message" data-participant-1="Future" data-participant-2="Subscriber"><polygon fill="#181818" points="1368.4736,517.4531,1358.4736,521.4531,1368.4736,525.4531,1364.4736,521.4531" style="stroke:#181818;stroke-width:1;"/><line style="stroke:#181818;stroke-width:1;" x1="1362.4736" x2="1611.9736" y1="521.4531" y2="521.4531"/><text fill="#000000" font-family="sans-serif" font-size="13" lengthAdjust="spacing" textLength="72.5347" x="1374.4736" y="516.3872">subscribe()</text></g><g class="message" data-participant-1="Subscriber" data-participant-2="Subscription"><polygon fill="#181818" points="1808.1602,531.4531,1818.1602,535.4531,1808.1602,539.4531,1812.1602,535.4531" style="stroke:#181818;stroke-width:1;"/><line style="stroke:#181818;stroke-width:1;stroke-dasharray:2,2;" x1="1357.4736" x2="1814.1602" y1="535.4531" y2="535.4531"/></g><rect fill="#E2E2F0" height="30.2969" rx="2.5" ry="2.5" style="stroke:#181818;stroke-width:0.5;" width="100.9873" x="1820.1602" y="529.4531"/><text fill="#000000" font-family="sans-serif" font-size="14" lengthAdjust="spacing" textLength="86.9873" x="1827.1602" y="549.4482">Subscription</text><path d="M1048.3586,577.75 L1124.9827,577.75 L1124.9827,584.8828 L1114.9827,594.8828 L1048.3586,594.8828 L1048.3586,577.75" fill="#EEEEEE" style="stroke:#000000;stroke-width:1.5;"/><rect fill="none" height="206.9297" style="stroke:#000000;stroke-width:1.5;" width="882.7888" x="1048.3586" y="577.75"/><text fill="#000000" font-family="sans-serif" font-size="13" font-weight="bold" lengthAdjust="spacing" textLength="31.624" x="1063.3586" y="590.8169">loop</text><g class="message" data-participant-1="Future" data-participant-2="Subscription"><polygon fill="#181818" points="1858.6538,612.0156,1868.6538,616.0156,1858.6538,620.0156,1862.6538,616.0156" style="stroke:#181818;stroke-width:1;"/><line style="stroke:#181818;stroke-width:1;" x1="1612.9736" x2="1864.6538" y1="616.0156" y2="616.0156"/><text fill="#000000" font-family="sans-serif" font-size="13" lengthAdjust="spacing" textLength="82.5703" x="1619.9736" y="610.9497">try_receive()</text></g><path d="M1058.3586,631.0156 L1122.8015,631.0156 L1122.8015,638.1484 L1112.8015,648.1484 L1058.3586,648.1484 L1058.3586,631.0156" fill="#EEEEEE" style="stroke:#000000;stroke-width:1.5;"/><rect fill="none" height="146.6641" style="stroke:#000000;stroke-width:1.5;" width="817.2952" x="1058.3586" y="631.0156"/><text fill="#000000" font-family="sans-serif" font-size="13" font-weight="bold" lengthAdjust="spacing" textLength="19.4429" x="1073.3586" y="644.0825">alt</text><text fill="#000000" font-family="sans-serif" font-size="11" font-weight="bold" lengthAdjust="spacing" textLength="133.5845" x="1137.8015" y="643.2261">[SAMPLE_AVAILABLE]</text><g class="message" data-participant-1="Future" data-participant-2="Sample"><polygon fill="#181818" points="1455.9897,665.2813,1445.9897,669.2813,1455.9897,673.2813,1451.9897,669.2813" style="stroke:#181818;stroke-width:1;"/><line style="stroke:#181818;stroke-width:1;" x1="1449.9897" x2="1611.9736" y1="669.2813" y2="669.2813"/><text fill="#000000" font-family="sans-serif" font-size="13" lengthAdjust="spacing" textLength="76.9463" x="1461.9897" y="664.2153">to_someip()</text></g><g class="message" data-participant-1="Sample" data-participant-2="Future"><polygon fill="#181818" points="1600.9736,694.4141,1610.9736,698.4141,1600.9736,702.4141,1604.9736,698.4141" style="stroke:#181818;stroke-width:1;"/><line style="stroke:#181818;stroke-width:1;stroke-dasharray:2,2;" x1="1444.9897" x2="1606.9736" y1="698.4141" y2="698.4141"/><text fill="#000000" font-family="sans-serif" font-size="13" lengthAdjust="spacing" textLength="143.9839" x="1451.9897" y="693.3481">SERIALIZED_PAYLOAD</text></g><g class="message" data-participant-1="Future" data-participant-2="Future"><line style="stroke:#181818;stroke-width:1;" x1="1612.9736" x2="1654.9736" y1="727.5469" y2="727.5469"/><line style="stroke:#181818;stroke-width:1;" x1="1654.9736" x2="1654.9736" y1="727.5469" y2="740.5469"/><line style="stroke:#181818;stroke-width:1;" x1="1613.9736" x2="1654.9736" y1="740.5469" y2="740.5469"/><polygon fill="#181818" points="1623.9736,736.5469,1613.9736,740.5469,1623.9736,744.5469,1619.9736,740.5469" style="stroke:#181818;stroke-width:1;"/><text fill="#000000" font-family="sans-serif" font-size="13" lengthAdjust="spacing" textLength="243.6802" x="1619.9736" y="722.481">calculate_e2e(SERIALIZED_PAYLOAD)</text></g><g class="message" data-participant-1="Future" data-participant-2="SomeIPAdapter"><polygon fill="#181818" points="1140.3899,765.6797,1130.3899,769.6797,1140.3899,773.6797,1136.3899,769.6797" style="stroke:#181818;stroke-width:1;"/><line style="stroke:#181818;stroke-width:1;" x1="1134.3899" x2="1611.9736" y1="769.6797" y2="769.6797"/><text fill="#000000" font-family="sans-serif" font-size="13" lengthAdjust="spacing" textLength="234.8252" x="1146.3899" y="764.6138">notify_event(SERIALIZED_PAYLOAD)</text></g><g class="message" data-participant-1="VehicleConsumer" data-participant-2="VehicleConsumer"><line style="stroke:#181818;stroke-width:1;" x1="904.1277" x2="946.1277" y1="819.8125" y2="819.8125"/><line style="stroke:#181818;stroke-width:1;" x1="946.1277" x2="946.1277" y1="819.8125" y2="832.8125"/><line style="stroke:#181818;stroke-width:1;" x1="905.1277" x2="946.1277" y1="832.8125" y2="832.8125"/><polygon fill="#181818" points="915.1277,828.8125,905.1277,832.8125,915.1277,836.8125,911.1277,832.8125" style="stroke:#181818;stroke-width:1;"/><text fill="#000000" font-family="sans-serif" font-size="13" lengthAdjust="spacing" textLength="200.9731" x="911.1277" y="814.7466">spawn(all_subscribers_futures)</text></g><path d="M909,845.8125 L909,900.8125 L1407,900.8125 L1407,855.8125 L1397,845.8125 L909,845.8125" fill="#FEFFDD" style="stroke:#181818;stroke-width:0.5;"/><path d="M1397,845.8125 L1397,855.8125 L1407,855.8125 L1397,845.8125" fill="#FEFFDD" style="stroke:#181818;stroke-width:0.5;"/><text fill="#000000" font-family="sans-serif" font-size="13" lengthAdjust="spacing" textLength="338.1587" x="915" y="862.8794">This spawns a task where all futures are awaited till</text><text fill="#000000" font-family="sans-serif" font-size="13" font-weight="bold" lengthAdjust="spacing" textLength="36.9814" x="1257.291" y="862.8794">error</text><text fill="#000000" font-family="sans-serif" font-size="13" lengthAdjust="spacing" textLength="13.2983" x="1298.4048" y="862.8794">or</text><text fill="#000000" font-family="sans-serif" font-size="13" font-weight="bold" lengthAdjust="spacing" textLength="71.9634" x="1315.8354" y="862.8794">shutdown</text><text fill="#000000" font-family="sans-serif" font-size="13" lengthAdjust="spacing" textLength="4.1323" x="1387.7988" y="862.8794">.</text><text fill="#000000" font-family="sans-serif" font-size="13" lengthAdjust="spacing" textLength="393.3706" x="915" y="878.0122">All subscribers are placed in single task however this can be</text><text fill="#000000" font-family="sans-serif" font-size="13" font-weight="bold" lengthAdjust="spacing" textLength="80.2344" x="1312.5029" y="878.0122">generation</text><text fill="#000000" font-family="sans-serif" font-size="13" lengthAdjust="spacing" textLength="49.1182" x="915" y="893.145">specific</text><g class="message" data-participant-1="VehicleConsumer" data-participant-2="LocalToSomeIPBridge"><polygon fill="#181818" points="645.8643,930.3438,635.8643,934.3438,645.8643,938.3438,641.8643,934.3438" style="stroke:#181818;stroke-width:1;"/><line style="stroke:#181818;stroke-width:1;stroke-dasharray:2,2;" x1="639.8643" x2="903.1277" y1="934.3438" y2="934.3438"/><text fill="#000000" font-family="sans-serif" font-size="13" lengthAdjust="spacing" textLength="69.4814" x="651.8643" y="929.2778">JoinHandle</text></g><g class="message" data-participant-1="LocalToSomeIPBridge" data-participant-2="LocalToSomeIPBridge"><line style="stroke:#181818;stroke-width:1;" x1="634.8643" x2="676.8643" y1="963.4766" y2="963.4766"/><line style="stroke:#181818;stroke-width:1;" x1="676.8643" x2="676.8643" y1="963.4766" y2="976.4766"/><line style="stroke:#181818;stroke-width:1;" x1="635.8643" x2="676.8643" y1="976.4766" y2="976.4766"/><polygon fill="#181818" points="645.8643,972.4766,635.8643,976.4766,645.8643,980.4766,641.8643,976.4766" style="stroke:#181818;stroke-width:1;"/><text fill="#000000" font-family="sans-serif" font-size="13" lengthAdjust="spacing" textLength="237.3071" x="641.8643" y="958.4106">join_all(JoinHandle, Shutdown).await</text></g><!--SRC=[ZLLDZzCm4BtxLupWqeQbI1mZX9I58egAgEWA2IwMwqmQWni7szdIVy_4-MpQBkGGESbylddpiZD_O2yy7iK9dg_LFlVtka86T9N2UYLLAGeFxqoHgVt5wsTh8uL-C5jpmDNctgfqZs- -OQwaHd9nrG7jssSW75mnP5Yai3D_66DqXyEHItFWUopGKa4fN6IR11xyTqCJNAIYz6ZTKzqqLIIDvQYCKHriuhBQlFjQ5LuTSFfbM-sSj6f7aQPVnA7KepPVlcrnZ45Qf7gvhb7Xtd175QcIxm8mipbZZI6GonNaOYZmE6jz7Df79P6dwEGTg59osnHw1wr52ycS5SOZs1gMBlvHQGrbvG65p44Lpej28Xsy0OVK35K9NhXVyAW4H94hnR68ej1J7OsnnMB1hfHue_8NBsAW7DRFvWjn5ChVyZqRKGmMzyhHYUV6UPuBdSqSwcpS4fXiCjWekdIBeZwM0rbPYpIelc_gsg94zKX7Ax9CISYCXUsNpyjNgys2hJBmELe2o84eJcT6FgUNxJ1WfX0Ew7EJKi3V5Je_PyetSEyGKjIKmnB9AMDmx4fOZA2z0Sr0nHWoLQGT0tf8dnZ915QJPGHEvt-5KCJ4Mw4csnX3JzwzDLK9YJiLye6e4zPF6rE2wrU5-hrOPsYloViwruVALnQZg4l2yP7cHgawdyOWTDZdY8Ty8ylXExmSp4klJCthpgekjt-ucY1unCI04syfCqfINqAJ0YIVD-ibJxubgtLolrwU6Kp21h6WW9qOJCA5seDDgBjnZ66x_BfArgiVo_TyatnVVqdUFv6ZSw9voahN0eIlSNOPOlvKdUSC8gQgxDJEur-HYDfiT1vGxX_O3G9Sa2q8qKnepGTIEPw5CbsJzLmQhh7j8Qni7OdMkP6vOrXlYWjjB13rSxrNzRRM-nj5QAsnf2IqzII9UULJKwlY8WHDo6HKK_0ljP3aJgHtgjZhLb9pSoJSMkMGegYL8OhQ7-30HrUYLAGoFLADEjIdi6cCNG1swxVnoQZYeoXI-YlzlsR7y9FSE64o6_plODlstQhENm00]--></g></svg>