<svg xmlns="http://www.w3.org/2000/svg" xmlns:xlink="http://www.w3.org/1999/xlink" contentStyleType="text/css" data-diagram-type="SEQUENCE" height="911px" preserveAspectRatio="none" style="width:1881px;height:911px;background:#FFFFFF;" version="1.1" viewBox="0 0 1881 911" width="1881px" zoomAndPan="magnify"><defs/><g><rect fill="#ADD8E6" height="899.5859" style="stroke:#181818;stroke-width:0.5;" width="942.7847" x="1" y="6"/><text fill="#000000" font-family="sans-serif" font-size="13" font-weight="bold" lengthAdjust="spacing" textLength="62.3657" x="438.9465" y="18.0669">gateway</text><rect fill="#DDDDDD" height="899.5859" style="stroke:#181818;stroke-width:0.5;" width="326.2324" x="945.7847" y="6"/><text fill="#000000" font-family="sans-serif" font-size="13" font-weight="bold" lengthAdjust="spacing" textLength="144.4536" x="1036.6741" y="18.0669">mw_com_generated</text><rect fill="#ADD8E6" height="899.5859" style="stroke:#181818;stroke-width:0.5;" width="144.728" x="1274.0171" y="6"/><text fill="#000000" font-family="sans-serif" font-size="13" font-weight="bold" lengthAdjust="spacing" textLength="134.2021" x="1277.0171" y="18.0669">gateway_adapters</text><rect fill="#DDDDDD" height="899.5859" style="stroke:#181818;stroke-width:0.5;" width="191.9678" x="1420.7451" y="6"/><text fill="#000000" font-family="sans-serif" font-size="13" font-weight="bold" lengthAdjust="spacing" textLength="62.2388" x="1485.6096" y="18.0669">mw_com</text><g><title>Main</title><rect fill="#FFFFFF" height="78.3984" style="stroke:#FFFFFF;stroke-width:1;" width="10" x="23.7104" y="165.9922"/><line style="stroke:#181818;stroke-width:1;" x1="23.7104" x2="23.7104" y1="165.9922" y2="244.3906"/><line style="stroke:#181818;stroke-width:1;" x1="33.7104" x2="33.7104" y1="165.9922" y2="244.3906"/><line style="stroke:#181818;stroke-width:1;" x1="23.7104" x2="33.7104" y1="165.9922" y2="165.9922"/></g><g><title>Main</title><rect fill="#FFFFFF" height="589.8984" style="stroke:#FFFFFF;stroke-width:1;" width="10" x="23.7104" y="272.3906"/><line style="stroke:#181818;stroke-width:1;" x1="23.7104" x2="23.7104" y1="272.3906" y2="862.2891"/><line style="stroke:#181818;stroke-width:1;" x1="33.7104" x2="33.7104" y1="272.3906" y2="862.2891"/></g><g><title>Publisher</title><rect fill="#FFFFFF" height="237.2305" style="stroke:#181818;stroke-width:1;" width="10" x="1564.4541" y="625.0586"/></g><rect fill="none" height="545.7656" style="stroke:#000000;stroke-width:1.5;" width="1257.4023" x="617.021" y="308.5234"/><rect fill="none" height="151.5" style="stroke:#000000;stroke-width:1.5;" width="963.1655" x="627.021" y="361.7891"/><g><title>Main</title><rect fill="#000000" fill-opacity="0.00000" height="187.9609" width="8" x="24.7104" y="56.4297"/><line style="stroke:#181818;stroke-width:0.5;stroke-dasharray:5,5;" x1="28" x2="28" y1="56.4297" y2="244.3906"/></g><line style="stroke:#181818;stroke-width:0.5;stroke-dasharray:1,4;" x1="28" x2="28" y1="244.3906" y2="272.3906"/><g><title>Main</title><rect fill="#000000" fill-opacity="0.00000" height="598.8984" width="8" x="24.7104" y="272.3906"/><line style="stroke:#181818;stroke-width:0.5;stroke-dasharray:5,5;" x1="28" x2="28" y1="272.3906" y2="871.2891"/></g><g><title>Config</title><rect fill="#000000" fill-opacity="0.00000" height="187.9609" width="8" x="593.5615" y="56.4297"/><line style="stroke:#181818;stroke-width:0.5;stroke-dasharray:5,5;" x1="597.1021" x2="597.1021" y1="56.4297" y2="244.3906"/></g><line style="stroke:#181818;stroke-width:0.5;stroke-dasharray:1,4;" x1="597.1021" x2="597.1021" y1="244.3906" y2="272.3906"/><g><title>Config</title><rect fill="#000000" fill-opacity="0.00000" height="598.8984" width="8" x="593.5615" y="272.3906"/><line style="stroke:#181818;stroke-width:0.5;stroke-dasharray:5,5;" x1="597.1021" x2="597.1021" y1="272.3906" y2="871.2891"/></g><g><title>SomeIPToLocalBridge.VehicleProducer.</title><rect fill="#000000" fill-opacity="0.00000" height="118.1797" width="8" x="784.4028" y="126.2109"/><line style="stroke:#181818;stroke-width:0.5;stroke-dasharray:5,5;" x1="788.021" x2="788.021" y1="126.2109" y2="244.3906"/></g><line style="stroke:#181818;stroke-width:0.5;stroke-dasharray:1,4;" x1="788.021" x2="788.021" y1="244.3906" y2="272.3906"/><g><title>SomeIPToLocalBridge.VehicleProducer.</title><rect fill="#000000" fill-opacity="0.00000" height="598.8984" width="8" x="784.4028" y="272.3906"/><line style="stroke:#181818;stroke-width:0.5;stroke-dasharray:5,5;" x1="788.021" x2="788.021" y1="272.3906" y2="871.2891"/></g><g><title>VehicleProducer</title><rect fill="#000000" fill-opacity="0.00000" height="187.9609" width="8" x="1009.6563" y="56.4297"/><line style="stroke:#181818;stroke-width:0.5;stroke-dasharray:5,5;" x1="1012.7847" x2="1012.7847" y1="56.4297" y2="244.3906"/></g><line style="stroke:#181818;stroke-width:0.5;stroke-dasharray:1,4;" x1="1012.7847" x2="1012.7847" y1="244.3906" y2="272.3906"/><g><title>VehicleProducer</title><rect fill="#000000" fill-opacity="0.00000" height="598.8984" width="8" x="1009.6563" y="272.3906"/><line style="stroke:#181818;stroke-width:0.5;stroke-dasharray:5,5;" x1="1012.7847" x2="1012.7847" y1="272.3906" y2="871.2891"/></g><g><title>OfferedVehicleProducer</title><rect fill="#000000" fill-opacity="0.00000" height="432.5859" width="8" x="1173.7725" y="438.7031"/><line style="stroke:#181818;stroke-width:0.5;stroke-dasharray:5,5;" x1="1177.5278" x2="1177.5278" y1="438.7031" y2="871.2891"/></g><g><title>SomeIPAdapter</title><rect fill="#000000" fill-opacity="0.00000" height="187.9609" width="8" x="1342.3811" y="56.4297"/><line style="stroke:#181818;stroke-width:0.5;stroke-dasharray:5,5;" x1="1346.3499" x2="1346.3499" y1="56.4297" y2="244.3906"/></g><line style="stroke:#181818;stroke-width:0.5;stroke-dasharray:1,4;" x1="1346.3499" x2="1346.3499" y1="244.3906" y2="272.3906"/><g><title>SomeIPAdapter</title><rect fill="#000000" fill-opacity="0.00000" height="598.8984" width="8" x="1342.3811" y="272.3906"/><line style="stroke:#181818;stroke-width:0.5;stroke-dasharray:5,5;" x1="1346.3499" x2="1346.3499" y1="272.3906" y2="871.2891"/></g><g><title>IPCRuntime</title><rect fill="#000000" fill-opacity="0.00000" height="187.9609" width="8" x="1468.4702" y="56.4297"/><line style="stroke:#181818;stroke-width:0.5;stroke-dasharray:5,5;" x1="1471.7451" x2="1471.7451" y1="56.4297" y2="244.3906"/></g><line style="stroke:#181818;stroke-width:0.5;stroke-dasharray:1,4;" x1="1471.7451" x2="1471.7451" y1="244.3906" y2="272.3906"/><g><title>IPCRuntime</title><rect fill="#000000" fill-opacity="0.00000" height="598.8984" width="8" x="1468.4702" y="272.3906"/><line style="stroke:#181818;stroke-width:0.5;stroke-dasharray:5,5;" x1="1471.7451" x2="1471.7451" y1="272.3906" y2="871.2891"/></g><g><title>Publisher</title><rect fill="#000000" fill-opacity="0.00000" height="187.9609" width="8" x="1565.4541" y="56.4297"/><line style="stroke:#181818;stroke-width:0.5;stroke-dasharray:5,5;" x1="1569.1953" x2="1569.1953" y1="56.4297" y2="244.3906"/></g><line style="stroke:#181818;stroke-width:0.5;stroke-dasharray:1,4;" x1="1569.1953" x2="1569.1953" y1="244.3906" y2="272.3906"/><g><title>Publisher</title><rect fill="#000000" fill-opacity="0.00000" height="598.8984" width="8" x="1565.4541" y="272.3906"/><line style="stroke:#181818;stroke-width:0.5;stroke-dasharray:5,5;" x1="1569.1953" x2="1569.1953" y1="272.3906" y2="871.2891"/></g><g class="participant participant-head" data-participant="Main"><rect fill="#E2E2F0" height="30.2969" rx="2.5" ry="2.5" style="stroke:#181818;stroke-width:0.5;" width="47.4209" x="5" y="25.1328"/><text fill="#000000" font-family="sans-serif" font-size="14" lengthAdjust="spacing" textLength="33.4209" x="12" y="45.1279">Main</text></g><g class="participant participant-tail" data-participant="Main"><rect fill="#E2E2F0" height="30.2969" rx="2.5" ry="2.5" style="stroke:#181818;stroke-width:0.5;" width="47.4209" x="5" y="870.2891"/><text fill="#000000" font-family="sans-serif" font-size="14" lengthAdjust="spacing" textLength="33.4209" x="12" y="890.2842">Main</text></g><g class="participant participant-head" data-participant="Config"><rect fill="#E2E2F0" height="30.2969" rx="2.5" ry="2.5" style="stroke:#181818;stroke-width:0.5;" width="58.9189" x="568.1021" y="25.1328"/><text fill="#000000" font-family="sans-serif" font-size="14" lengthAdjust="spacing" textLength="44.9189" x="575.1021" y="45.1279">Config</text></g><g class="participant participant-tail" data-participant="Config"><rect fill="#E2E2F0" height="30.2969" rx="2.5" ry="2.5" style="stroke:#181818;stroke-width:0.5;" width="58.9189" x="568.1021" y="870.2891"/><text fill="#000000" font-family="sans-serif" font-size="14" lengthAdjust="spacing" textLength="44.9189" x="575.1021" y="890.2842">Config</text></g><g class="participant participant-tail" data-participant="SomeIPToLocalBridge"><rect fill="#E2E2F0" height="30.2969" rx="2.5" ry="2.5" style="stroke:#181818;stroke-width:0.5;" width="302.7637" x="637.021" y="870.2891"/><text fill="#000000" font-family="sans-serif" font-size="14" lengthAdjust="spacing" textLength="288.7637" x="644.021" y="890.2842">SomeIPToLocalBridge&lt;VehicleProducer&gt;</text></g><g class="participant participant-head" data-participant="VehicleProducer"><rect fill="#E2E2F0" height="30.2969" rx="2.5" ry="2.5" style="stroke:#181818;stroke-width:0.5;" width="127.7432" x="949.7847" y="25.1328"/><text fill="#000000" font-family="sans-serif" font-size="14" lengthAdjust="spacing" textLength="113.7432" x="956.7847" y="45.1279">VehicleProducer</text></g><g class="participant participant-tail" data-participant="VehicleProducer"><rect fill="#E2E2F0" height="30.2969" rx="2.5" ry="2.5" style="stroke:#181818;stroke-width:0.5;" width="127.7432" x="949.7847" y="870.2891"/><text fill="#000000" font-family="sans-serif" font-size="14" lengthAdjust="spacing" textLength="113.7432" x="956.7847" y="890.2842">VehicleProducer</text></g><g class="participant participant-tail" data-participant="OfferedVehicleProducer"><rect fill="#E2E2F0" height="30.2969" rx="2.5" ry="2.5" style="stroke:#181818;stroke-width:0.5;" width="180.4893" x="1087.5278" y="870.2891"/><text fill="#000000" font-family="sans-serif" font-size="14" lengthAdjust="spacing" textLength="166.4893" x="1094.5278" y="890.2842">OfferedVehicleProducer</text></g><g class="participant participant-head" data-participant="SomeIPAdapter"><rect fill="#E2E2F0" height="30.2969" rx="2.5" ry="2.5" style="stroke:#181818;stroke-width:0.5;" width="122.0625" x="1285.3499" y="25.1328"/><text fill="#000000" font-family="sans-serif" font-size="14" lengthAdjust="spacing" textLength="108.0625" x="1292.3499" y="45.1279">SomeIPAdapter</text></g><g class="participant participant-tail" data-participant="SomeIPAdapter"><rect fill="#E2E2F0" height="30.2969" rx="2.5" ry="2.5" style="stroke:#181818;stroke-width:0.5;" width="122.0625" x="1285.3499" y="870.2891"/><text fill="#000000" font-family="sans-serif" font-size="14" lengthAdjust="spacing" textLength="108.0625" x="1292.3499" y="890.2842">SomeIPAdapter</text></g><g class="participant participant-head" data-participant="IPCRuntime"><rect fill="#E2E2F0" height="30.2969" rx="2.5" ry="2.5" style="stroke:#181818;stroke-width:0.5;" width="95.4502" x="1424.7451" y="25.1328"/><text fill="#000000" font-family="sans-serif" font-size="14" lengthAdjust="spacing" textLength="81.4502" x="1431.7451" y="45.1279">IPCRuntime</text></g><g class="participant participant-tail" data-participant="IPCRuntime"><rect fill="#E2E2F0" height="30.2969" rx="2.5" ry="2.5" style="stroke:#181818;stroke-width:0.5;" width="95.4502" x="1424.7451" y="870.2891"/><text fill="#000000" font-family="sans-serif" font-size="14" lengthAdjust="spacing" textLength="81.4502" x="1431.7451" y="890.2842">IPCRuntime</text></g><g class="participant participant-head" data-participant="Publisher"><rect fill="#E2E2F0" height="30.2969" rx="2.5" ry="2.5" style="stroke:#181818;stroke-width:0.5;" width="78.5176" x="1530.1953" y="25.1328"/><text fill="#000000" font-family="sans-serif" font-size="14" lengthAdjust="spacing" textLength="64.5176" x="1537.1953" y="45.1279">Publisher</text></g><g class="participant participant-tail" data-participant="Publisher"><rect fill="#E2E2F0" height="30.2969" rx="2.5" ry="2.5" style="stroke:#181818;stroke-width:0.5;" width="78.5176" x="1530.1953" y="870.2891"/><text fill="#000000" font-family="sans-serif" font-size="14" lengthAdjust="spacing" textLength="64.5176" x="1537.1953" y="890.2842">Publisher</text></g><g><title>Main</title><rect fill="#FFFFFF" height="78.3984" style="stroke:#FFFFFF;stroke-width:1;" width="10" x="23.7104" y="165.9922"/><line style="stroke:#181818;stroke-width:1;" x1="23.7104" x2="23.7104" y1="165.9922" y2="244.3906"/><line style="stroke:#181818;stroke-width:1;" x1="33.7104" x2="33.7104" y1="165.9922" y2="244.3906"/><line style="stroke:#181818;stroke-width:1;" x1="23.7104" x2="33.7104" y1="165.9922" y2="165.9922"/></g><g><title>Main</title><rect fill="#FFFFFF" height="589.8984" style="stroke:#FFFFFF;stroke-width:1;" width="10" x="23.7104" y="272.3906"/><line style="stroke:#181818;stroke-width:1;" x1="23.7104" x2="23.7104" y1="272.3906" y2="862.2891"/><line style="stroke:#181818;stroke-width:1;" x1="33.7104" x2="33.7104" y1="272.3906" y2="862.2891"/></g><g><title>Publisher</title><rect fill="#FFFFFF" height="237.2305" style="stroke:#181818;stroke-width:1;" width="10" x="1564.4541" y="625.0586"/></g><g class="message" data-participant-1="Main" data-participant-2="Config"><polygon fill="#181818" points="585.5615,83.5625,595.5615,87.5625,585.5615,91.5625,589.5615,87.5625" style="stroke:#181818;stroke-width:1;"/><line style="stroke:#181818;stroke-width:1;" x1="28.7104" x2="591.5615" y1="87.5625" y2="87.5625"/><text fill="#000000" font-family="sans-serif" font-size="13" lengthAdjust="spacing" textLength="544.8511" x="35.7104" y="82.4966">create_someip_to_local_bridge(someip_service_desc, ipc_runtime, someip_adapter)</text></g><g class="message" data-participant-1="Config" data-participant-2="SomeIPToLocalBridge"><polygon fill="#181818" points="625.021,97.5625,635.021,101.5625,625.021,105.5625,629.021,101.5625" style="stroke:#181818;stroke-width:1;"/><line style="stroke:#181818;stroke-width:1;" x1="597.5615" x2="631.021" y1="101.5625" y2="101.5625"/></g><rect fill="#E2E2F0" height="30.2969" rx="2.5" ry="2.5" style="stroke:#181818;stroke-width:0.5;" width="302.7637" x="637.021" y="95.5625"/><text fill="#000000" font-family="sans-serif" font-size="14" lengthAdjust="spacing" textLength="288.7637" x="644.021" y="115.5576">SomeIPToLocalBridge&lt;VehicleProducer&gt;</text><g class="message" data-participant-1="Main" data-participant-2="Main"><line style="stroke:#181818;stroke-width:1;" x1="28.7104" x2="75.7104" y1="152.9922" y2="152.9922"/><line style="stroke:#181818;stroke-width:1;" x1="75.7104" x2="75.7104" y1="152.9922" y2="165.9922"/><line style="stroke:#181818;stroke-width:1;" x1="34.7104" x2="75.7104" y1="165.9922" y2="165.9922"/><polygon fill="#181818" points="44.7104,161.9922,34.7104,165.9922,44.7104,169.9922,40.7104,165.9922" style="stroke:#181818;stroke-width:1;"/><text fill="#000000" font-family="sans-serif" font-size="13" lengthAdjust="spacing" textLength="41.8628" x="40.7104" y="147.9263">spawn</text></g><g class="message" data-participant-1="Main" data-participant-2="SomeIPAdapter"><polygon fill="#181818" points="1334.3811,214.2578,1344.3811,218.2578,1334.3811,222.2578,1338.3811,218.2578" style="stroke:#181818;stroke-width:1;"/><line style="stroke:#181818;stroke-width:1;" x1="33.7104" x2="1340.3811" y1="218.2578" y2="218.2578"/><text fill="#000000" font-family="sans-serif" font-size="13" lengthAdjust="spacing" textLength="79.8281" x="40.7104" y="213.1919">start().await</text></g><path d="M1351,183.9922 L1351,238.9922 L1844,238.9922 L1844,193.9922 L1834,183.9922 L1351,183.9922" fill="#FEFFDD" style="stroke:#181818;stroke-width:0.5;"/><path d="M1834,183.9922 L1834,193.9922 L1844,193.9922 L1834,183.9922" fill="#FEFFDD" style="stroke:#181818;stroke-width:0.5;"/><text fill="#000000" font-family="sans-serif" font-size="13" lengthAdjust="spacing" textLength="472.8877" x="1357" y="201.0591">From now on, incoming SOME/IP traffic is routed to registered instances.</text><text fill="#000000" font-family="sans-serif" font-size="13" lengthAdjust="spacing" textLength="469.7012" x="1357" y="216.1919">This is implementation specific, but current implementation for COVESA</text><text fill="#000000" font-family="sans-serif" font-size="13" lengthAdjust="spacing" textLength="334.5469" x="1357" y="231.3247">is doing here find_service for each registered client</text><g class="message" data-participant-1="SomeIPAdapter" data-participant-2="SomeIPAdapter"><polygon fill="#181818" points="1334.3811,289.5234,1344.3811,293.5234,1334.3811,297.5234,1338.3811,293.5234" style="stroke:#181818;stroke-width:1;"/><line style="stroke:#181818;stroke-width:1;" x1="0" x2="1340.3811" y1="293.5234" y2="293.5234"/><text fill="#000000" font-family="sans-serif" font-size="13" lengthAdjust="spacing" textLength="147.2466" x="7" y="288.4575">NEW_DATA_INCOMING</text></g><path d="M617.021,308.5234 L681.4639,308.5234 L681.4639,315.6563 L671.4639,325.6563 L617.021,325.6563 L617.021,308.5234" fill="#EEEEEE" style="stroke:#000000;stroke-width:1.5;"/><rect fill="none" height="545.7656" style="stroke:#000000;stroke-width:1.5;" width="1257.4023" x="617.021" y="308.5234"/><text fill="#000000" font-family="sans-serif" font-size="13" font-weight="bold" lengthAdjust="spacing" textLength="19.4429" x="632.021" y="321.5903">alt</text><text fill="#000000" font-family="sans-serif" font-size="11" font-weight="bold" lengthAdjust="spacing" textLength="242.1665" x="696.4639" y="320.7339">[DETECTED_SERVICE_STATE_CHANGED]</text><g class="message" data-participant-1="SomeIPAdapter" data-participant-2="SomeIPToLocalBridge"><polygon fill="#181818" points="799.4028,342.7891,789.4028,346.7891,799.4028,350.7891,795.4028,346.7891" style="stroke:#181818;stroke-width:1;"/><line style="stroke:#181818;stroke-width:1;" x1="793.4028" x2="1345.3811" y1="346.7891" y2="346.7891"/><text fill="#000000" font-family="sans-serif" font-size="13" lengthAdjust="spacing" textLength="199.9766" x="805.4028" y="341.7231">service_state_changed(STATE)</text></g><path d="M627.021,361.7891 L691.4639,361.7891 L691.4639,368.9219 L681.4639,378.9219 L627.021,378.9219 L627.021,361.7891" fill="#EEEEEE" style="stroke:#000000;stroke-width:1.5;"/><rect fill="none" height="151.5" style="stroke:#000000;stroke-width:1.5;" width="963.1655" x="627.021" y="361.7891"/><text fill="#000000" font-family="sans-serif" font-size="13" font-weight="bold" lengthAdjust="spacing" textLength="19.4429" x="642.021" y="374.856">alt</text><text fill="#000000" font-family="sans-serif" font-size="11" font-weight="bold" lengthAdjust="spacing" textLength="135.7168" x="706.4639" y="373.9995">[SERVICE_AVAILABLE]</text><g class="message" data-participant-1="SomeIPToLocalBridge" data-participant-2="VehicleProducer"><polygon fill="#181818" points="1001.6563,396.0547,1011.6563,400.0547,1001.6563,404.0547,1005.6563,400.0547" style="stroke:#181818;stroke-width:1;"/><line style="stroke:#181818;stroke-width:1;" x1="788.4028" x2="1007.6563" y1="400.0547" y2="400.0547"/><text fill="#000000" font-family="sans-serif" font-size="13" lengthAdjust="spacing" textLength="40.5933" x="795.4028" y="394.9888">offer()</text></g><line style="stroke:#A80036;stroke-width:2;" x1="1004.6563" x2="1022.6563" y1="391.0547" y2="409.0547"/><line style="stroke:#A80036;stroke-width:2;" x1="1004.6563" x2="1022.6563" y1="409.0547" y2="391.0547"/><g class="message" data-participant-1="VehicleProducer" data-participant-2="OfferedVehicleProducer"><polygon fill="#181818" points="1075.5278,410.0547,1085.5278,414.0547,1075.5278,418.0547,1079.5278,414.0547" style="stroke:#181818;stroke-width:1;"/><line style="stroke:#181818;stroke-width:1;stroke-dasharray:2,2;" x1="1013.6563" x2="1081.5278" y1="414.0547" y2="414.0547"/></g><rect fill="#E2E2F0" height="30.2969" rx="2.5" ry="2.5" style="stroke:#181818;stroke-width:0.5;" width="180.4893" x="1087.5278" y="408.0547"/><text fill="#000000" font-family="sans-serif" font-size="14" lengthAdjust="spacing" textLength="166.4893" x="1094.5278" y="428.0498">OfferedVehicleProducer</text><g class="message" data-participant-1="VehicleProducer" data-participant-2="SomeIPToLocalBridge"><polygon fill="#181818" points="799.4028,451.3516,789.4028,455.3516,799.4028,459.3516,795.4028,455.3516" style="stroke:#181818;stroke-width:1;"/><line style="stroke:#181818;stroke-width:1;stroke-dasharray:2,2;" x1="793.4028" x2="1012.6563" y1="455.3516" y2="455.3516"/></g><line style="stroke:#000000;stroke-width:1;stroke-dasharray:2,2;" x1="627.021" x2="1590.1865" y1="464.3516" y2="464.3516"/><text fill="#000000" font-family="sans-serif" font-size="11" font-weight="bold" lengthAdjust="spacing" textLength="153.855" x="632.021" y="474.562">[SERVICE_UNAVAILABLE]</text><g class="message" data-participant-1="SomeIPToLocalBridge" data-participant-2="OfferedVehicleProducer"><polygon fill="#181818" points="1165.7725,498.2891,1175.7725,502.2891,1165.7725,506.2891,1169.7725,502.2891" style="stroke:#181818;stroke-width:1;"/><line style="stroke:#181818;stroke-width:1;stroke-dasharray:2,2;" x1="788.4028" x2="1171.7725" y1="502.2891" y2="502.2891"/><text fill="#000000" font-family="sans-serif" font-size="13" lengthAdjust="spacing" textLength="57.0718" x="795.4028" y="497.2231">unoffer()</text></g><path d="M1182,483.1563 L1182,508.1563 L1574,508.1563 L1574,493.1563 L1564,483.1563 L1182,483.1563" fill="#FEFFDD" style="stroke:#181818;stroke-width:0.5;"/><path d="M1564,483.1563 L1564,493.1563 L1574,493.1563 L1564,483.1563" fill="#FEFFDD" style="stroke:#181818;stroke-width:0.5;"/><text fill="#000000" font-family="sans-serif" font-size="13" lengthAdjust="spacing" textLength="371.4141" x="1188" y="500.2231">Here VehicleProducer is again created - no more offering</text><line style="stroke:#A80036;stroke-width:2;" x1="1168.7725" x2="1186.7725" y1="493.2891" y2="511.2891"/><line style="stroke:#A80036;stroke-width:2;" x1="1168.7725" x2="1186.7725" y1="511.2891" y2="493.2891"/><line style="stroke:#000000;stroke-width:1;stroke-dasharray:2,2;" x1="617.021" x2="1874.4233" y1="521.2891" y2="521.2891"/><text fill="#000000" font-family="sans-serif" font-size="11" font-weight="bold" lengthAdjust="spacing" textLength="107.4971" x="622.021" y="531.4995">[RECEIVE_EVENT]</text><g class="message" data-participant-1="SomeIPAdapter" data-participant-2="SomeIPToLocalBridge"><polygon fill="#181818" points="799.4028,552.2266,789.4028,556.2266,799.4028,560.2266,795.4028,556.2266" style="stroke:#181818;stroke-width:1;"/><line style="stroke:#181818;stroke-width:1;" x1="793.4028" x2="1345.3811" y1="556.2266" y2="556.2266"/><text fill="#000000" font-family="sans-serif" font-size="13" lengthAdjust="spacing" textLength="216.8105" x="805.4028" y="551.1606">receive_event(event_id, payload)</text></g><g class="message" data-participant-1="SomeIPToLocalBridge" data-participant-2="OfferedVehicleProducer"><polygon fill="#181818" points="1165.7725,581.3594,1175.7725,585.3594,1165.7725,589.3594,1169.7725,585.3594" style="stroke:#181818;stroke-width:1;"/><line style="stroke:#181818;stroke-width:1;" x1="788.4028" x2="1171.7725" y1="585.3594" y2="585.3594"/><text fill="#000000" font-family="sans-serif" font-size="13" lengthAdjust="spacing" textLength="153.7021" x="795.4028" y="580.2935">get_publisher(event_id)</text></g><g class="message" data-participant-1="SomeIPToLocalBridge" data-participant-2="Publisher"><polygon fill="#181818" points="1552.4541,621.0586,1562.4541,625.0586,1552.4541,629.0586,1556.4541,625.0586" style="stroke:#181818;stroke-width:1;"/><line style="stroke:#181818;stroke-width:1;" x1="788.4028" x2="1558.4541" y1="625.0586" y2="625.0586"/><text fill="#000000" font-family="sans-serif" font-size="13" lengthAdjust="spacing" textLength="147.0752" x="795.4028" y="619.9927">bridge_event(payload)</text></g><path d="M1579,598.3594 L1579,638.3594 L1868,638.3594 L1868,608.3594 L1858,598.3594 L1579,598.3594" fill="#FEFFDD" style="stroke:#181818;stroke-width:0.5;"/><path d="M1858,598.3594 L1858,608.3594 L1868,608.3594 L1858,598.3594" fill="#FEFFDD" style="stroke:#181818;stroke-width:0.5;"/><text fill="#000000" font-family="sans-serif" font-size="13" font-weight="bold" lengthAdjust="spacing" textLength="95.6782" x="1585" y="615.4263">bridge_event</text><text fill="#000000" font-family="sans-serif" font-size="13" lengthAdjust="spacing" textLength="95.4814" x="1684.8105" y="615.4263">is blanket impl</text><text fill="#000000" font-family="sans-serif" font-size="13" lengthAdjust="spacing" textLength="268.9692" x="1585" y="630.5591">for Publisher in gateway_generated crate</text><g class="message" data-participant-1="Publisher" data-participant-2="Publisher"><line style="stroke:#181818;stroke-width:1;" x1="1574.4541" x2="1616.4541" y1="664.7578" y2="664.7578"/><line style="stroke:#181818;stroke-width:1;" x1="1616.4541" x2="1616.4541" y1="664.7578" y2="677.7578"/><line style="stroke:#181818;stroke-width:1;" x1="1575.4541" x2="1616.4541" y1="677.7578" y2="677.7578"/><polygon fill="#181818" points="1585.4541,673.7578,1575.4541,677.7578,1585.4541,681.7578,1581.4541,677.7578" style="stroke:#181818;stroke-width:1;"/><text fill="#000000" font-family="sans-serif" font-size="13" lengthAdjust="spacing" textLength="98.2617" x="1581.4541" y="659.6919">compute_e2e()</text></g><g class="message" data-participant-1="Publisher" data-participant-2="Publisher"><line style="stroke:#181818;stroke-width:1;" x1="1574.4541" x2="1616.4541" y1="706.8906" y2="706.8906"/><line style="stroke:#181818;stroke-width:1;" x1="1616.4541" x2="1616.4541" y1="706.8906" y2="719.8906"/><line style="stroke:#181818;stroke-width:1;" x1="1575.4541" x2="1616.4541" y1="719.8906" y2="719.8906"/><polygon fill="#181818" points="1585.4541,715.8906,1575.4541,719.8906,1585.4541,723.8906,1581.4541,719.8906" style="stroke:#181818;stroke-width:1;"/><text fill="#000000" font-family="sans-serif" font-size="13" lengthAdjust="spacing" textLength="146.1294" x="1581.4541" y="701.8247">from_someip(payload)</text></g><g class="message" data-participant-1="Publisher" data-participant-2="Publisher"><line style="stroke:#181818;stroke-width:1;" x1="1574.4541" x2="1616.4541" y1="749.0234" y2="749.0234"/><line style="stroke:#181818;stroke-width:1;" x1="1616.4541" x2="1616.4541" y1="749.0234" y2="762.0234"/><line style="stroke:#181818;stroke-width:1;" x1="1575.4541" x2="1616.4541" y1="762.0234" y2="762.0234"/><polygon fill="#181818" points="1585.4541,758.0234,1575.4541,762.0234,1585.4541,766.0234,1581.4541,762.0234" style="stroke:#181818;stroke-width:1;"/><text fill="#000000" font-family="sans-serif" font-size="13" lengthAdjust="spacing" textLength="61.4961" x="1581.4541" y="743.9575">allocate()</text></g><g class="message" data-participant-1="Publisher" data-participant-2="Publisher"><line style="stroke:#181818;stroke-width:1;" x1="1574.4541" x2="1616.4541" y1="791.1563" y2="791.1563"/><line style="stroke:#181818;stroke-width:1;" x1="1616.4541" x2="1616.4541" y1="791.1563" y2="804.1563"/><line style="stroke:#181818;stroke-width:1;" x1="1575.4541" x2="1616.4541" y1="804.1563" y2="804.1563"/><polygon fill="#181818" points="1585.4541,800.1563,1575.4541,804.1563,1585.4541,808.1563,1581.4541,804.1563" style="stroke:#181818;stroke-width:1;"/><text fill="#000000" font-family="sans-serif" font-size="13" lengthAdjust="spacing" textLength="232.0449" x="1581.4541" y="786.0903">write(sample, e2e_raw, e2e_status)</text></g><g class="message" data-participant-1="Publisher" data-participant-2="Publisher"><line style="stroke:#181818;stroke-width:1;" x1="1574.4541" x2="1616.4541" y1="833.2891" y2="833.2891"/><line style="stroke:#181818;stroke-width:1;" x1="1616.4541" x2="1616.4541" y1="833.2891" y2="846.2891"/><line style="stroke:#181818;stroke-width:1;" x1="1575.4541" x2="1616.4541" y1="846.2891" y2="846.2891"/><polygon fill="#181818" points="1585.4541,842.2891,1575.4541,846.2891,1585.4541,850.2891,1581.4541,846.2891" style="stroke:#181818;stroke-width:1;"/><text fill="#000000" font-family="sans-serif" font-size="13" lengthAdjust="spacing" textLength="41.4058" x="1581.4541" y="828.2231">send()</text></g><!--SRC=[bLJVRzem47xtNt7jNe1I9ksncYgbD6kHMefAnXujunp1Mc97ZbFQ_txd90G8b6q81MBVVVVTTp-MvXqIuN0ZFk3BaqhMxYujaG5zSc6TaYeNsi6pKFheS6pqIYL7nvTpa-5a5fad8qLwPrMSuFS5hfLCSMPDN4gqjvSW2ZXXo537i3JlZD43iWsN9kC9QhH4CeQZO1tSe_kNrGejnbspWoXD_bp48dTeYtD2r9I3sl8KMTPncCp6hwLsAiFkpQnSfgfOxyDucU7wjb7s1gH5uiOB2gfoxWnFlL9yMKdLQuuBj6zA8e-na4DGkUIs3ZY4ng99hCzgN1_XXFI3mOw0_xswke4Y5nlTdXuaJvUEikdrHs8Zb6FQE0JhXMC_hCb0cmqOJOGqgQ9q0lENv_3hP0REYjLAIL05M5FwgZe35XDLE5ygSY1WBR4OiMXDHlwRvIbcg9rmocXYXL8Hn12MfGDPMajNNQELiJ1-MOJpW152R3m54XjXfNIy5QsoGY7N-mHagWYbgefFYh7HQCJOSVxqcOQ_-7qG1Nmo7RyyJwOFZ8dKmNqOXUCelEVpy7Kn6OTy7WLHoCUFmVGXl6TLLns0VL8IqhWfBab2ZI3NGYSOzoguVWNZmssZ18jWyXJSFONLpIx80QOFrHc7YuiRC7vGUltMisC2r-HsUfYeRyuvdHfoRujfWItpdzD_vFuf2vz3gRjPx3NbzkZHzq2NA7M8I7oNrnCNmpMvGcR8j8Aavca1shveNXYhKdaDn-5a4V9m4KwZ_wYmHOdg3Jc-KTFrgYTNyP1MnKTgHDndP-fuMeeRID3nVBjUMiopKEqsycDVBvY6Kak4dL1qCDYt7GoyaijKwDzO3sIziVsKjG5emDkLkzliql-m0tshjvtRFabQZIRBQNbm_8PDlJ-pND4sQbPexq3Kpnn4wjUi-nlknYgoAOHVEqCW7joAJVt7JsjPd7SlA4-AuBEb6Vu3]--></g></svg>